<?xml version="1.0" encoding="utf-8"?>
<!-- Generator: Adobe Illustrator 16.0.0, SVG Export Plug-In . SVG Version: 6.00 Build 0)  -->
<!DOCTYPE svg PUBLIC "-//W3C//DTD SVG 1.1//EN" "http://www.w3.org/Graphics/SVG/1.1/DTD/svg11.dtd">
<svg version="1.1" id="Layer_1" xmlns="http://www.w3.org/2000/svg" xmlns:xlink="http://www.w3.org/1999/xlink" x="0px" y="0px"
	 width="19.688px" height="16px" viewBox="33.148 10.326 19.688 16" enable-background="new 33.148 10.326 19.688 16"
	 xml:space="preserve">
<path d="M52.837,12.22c-0.724,0.322-1.503,0.539-2.32,0.636c0.835-0.5,1.475-1.291,1.776-2.235c-0.78,0.463-1.645,0.799-2.564,0.981
	c-0.737-0.785-1.787-1.276-2.948-1.276c-2.23,0-4.039,1.809-4.039,4.04c0,0.316,0.035,0.624,0.104,0.92
	c-3.357-0.169-6.334-1.777-8.326-4.221c-0.348,0.596-0.547,1.29-0.547,2.031c0,1.401,0.713,2.638,1.797,3.362
	c-0.661-0.021-1.285-0.203-1.829-0.505c-0.001,0.017-0.001,0.034-0.001,0.051c0,1.957,1.393,3.589,3.24,3.961
	c-0.339,0.092-0.695,0.141-1.064,0.141c-0.26,0-0.514-0.025-0.76-0.072c0.515,1.604,2.006,2.772,3.773,2.805
	c-1.383,1.083-3.124,1.729-5.017,1.729c-0.326,0-0.647-0.019-0.964-0.057c1.788,1.147,3.911,1.815,6.192,1.815
	c7.43,0,11.492-6.155,11.492-11.493c0-0.175-0.003-0.35-0.011-0.523C51.611,13.742,52.296,13.03,52.837,12.22z"/>
</svg>
